<?xml version="1.0" standalone="no"?>
<!DOCTYPE svg PUBLIC "-//W3C//DTD SVG 20010904//EN"
 "http://www.w3.org/TR/2001/REC-SVG-20010904/DTD/svg10.dtd">
<svg version="1.0" xmlns="http://www.w3.org/2000/svg"
 width="300.000000pt" height="300.000000pt" viewBox="0 0 300.000000 300.000000"
 preserveAspectRatio="xMidYMid meet">

<g transform="translate(0.000000,300.000000) scale(0.100000,-0.100000)"
fill="#000000" stroke="none">
<path d="M1320 2894 c-241 -44 -408 -102 -550 -192 -342 -218 -563 -533 -647
-922 -26 -121 -26 -439 0 -560 114 -532 515 -947 1042 -1079 374 -93 794 -18
1117 200 121 82 295 256 377 377 312 462 319 1085 16 1542 -214 322 -517 533
-885 615 -73 16 -410 30 -470 19z m290 -24 c309 -28 563 -136 797 -340 294
-256 463 -631 463 -1030 0 -429 -198 -829 -540 -1089 -243 -185 -525 -281
-830 -281 -326 0 -611 101 -867 307 -510 410 -655 1128 -347 1714 122 231 339
445 573 567 193 101 358 144 616 161 11 0 72 -4 135 -9z"/>
<path d="M1220 2160 l0 -200 135 0 c128 0 135 1 135 20 0 19 -7 20 -115 20
l-115 0 0 180 c0 173 -1 180 -20 180 -19 0 -20 -7 -20 -200z"/>
<path d="M1550 2160 l0 -200 135 0 c128 0 135 1 135 20 0 19 -7 20 -115 20
l-115 0 0 180 c0 173 -1 180 -20 180 -19 0 -20 -7 -20 -200z"/>
<path d="M1205 1792 c-77 -47 -226 -152 -497 -352 -70 -51 -127 -94 -125 -95
1 -1 36 2 77 8 l75 10 155 127 c295 241 385 310 403 310 20 0 94 -48 116 -74
8 -9 25 -16 40 -16 28 0 71 25 71 41 0 19 -184 89 -233 89 -1 0 -38 -22 -82
-48z"/>
<path d="M1575 1657 c-142 -68 -176 -127 -75 -127 22 0 38 11 67 47 21 25 50
54 66 63 27 17 28 17 225 -85 108 -56 231 -120 273 -143 65 -36 88 -43 170
-52 52 -5 101 -10 109 -10 17 0 -225 117 -450 217 -129 58 -294 123 -310 123
-3 0 -37 -15 -75 -33z"/>
<path d="M705 1344 c-22 -3 -64 -9 -92 -15 l-53 -10 0 -52 c0 -41 4 -55 20
-64 27 -17 44 -55 65 -143 43 -177 99 -240 245 -274 84 -20 232 -20 298 -1 97
29 173 119 226 266 34 94 138 94 172 0 53 -147 129 -237 226 -266 66 -19 214
-19 298 1 146 34 203 97 244 274 18 73 56 150 76 150 6 0 10 24 10 54 l0 55
-57 13 c-38 8 -134 13 -273 13 -245 0 -306 -10 -473 -76 -56 -22 -114 -39
-137 -39 -23 0 -78 15 -128 35 -154 63 -225 76 -437 80 -104 1 -208 1 -230 -1z
m-64 -69 c0 -5 -12 -11 -26 -13 -18 -2 -25 1 -25 13 0 12 7 15 25 13 14 -2 26
-7 26 -13z m547 -14 c97 -27 140 -54 165 -101 55 -107 -61 -311 -194 -339 -92
-20 -259 -7 -318 24 -45 23 -93 78 -119 135 -33 71 -42 191 -18 238 31 60 77
72 261 68 109 -2 158 -7 223 -25z m1059 6 c51 -27 66 -67 61 -156 -7 -119 -65
-222 -149 -266 -59 -31 -226 -44 -318 -24 -125 26 -239 210 -201 323 21 64 79
97 231 131 92 21 332 15 376 -8z m163 8 c0 -16 -45 -21 -54 -6 -8 12 4 21 31
21 14 0 23 -6 23 -15z"/>
<path d="M745 997 c3 -10 5 -23 5 -28 0 -5 18 -29 41 -54 40 -44 115 -82 141
-72 8 4 7 6 -5 6 -10 1 -40 12 -66 26 -47 23 -81 60 -109 115 -7 14 -10 17 -7
7z"/>
<path d="M1718 923 c20 -36 71 -72 128 -89 30 -8 60 -14 66 -12 6 2 -14 10
-45 17 -43 9 -68 23 -108 59 -30 27 -47 38 -41 25z"/>
</g>
</svg>
